<svg xmlns="http://www.w3.org/2000/svg" viewBox="0 0 473.51 473.51">
  <path d="M17.77 92.07H201.9c9.8 0 17.76-7.95 17.76-17.77V20.4c0-9.8-7.95-17.77-17.77-17.77H17.75C7.96 2.63 0 10.6 0 20.4v53.9c0 9.82 7.95 17.77 17.77 17.77zM270.3 92.07h184.13c9.8 0 17.77-7.95 17.77-17.77V20.4c0-9.8-7.96-17.77-17.77-17.77H270.3c-9.8 0-17.76 7.95-17.76 17.77v53.9c0 9.82 7.95 17.77 17.76 17.77zM329.47 128.9H145.34c-9.8 0-17.76 7.95-17.76 17.76v53.9c0 9.82 7.95 17.78 17.76 17.78h184.13c9.8 0 17.77-7.96 17.77-17.77v-53.9c0-9.82-7.96-17.77-17.77-17.77zM397.88 128.9c-9.8 0-17.76 7.95-17.76 17.76v53.9c0 9.82 7.95 17.78 17.76 17.78h75.63V128.9H397.9zM1.3 128.9v89.44h75.64c9.8 0 17.76-7.96 17.76-17.77v-53.9c0-9.82-7.95-17.77-17.76-17.77H1.3zM329.47 381.44H145.34c-9.8 0-17.76 7.95-17.76 17.76v53.9c0 9.82 7.95 17.77 17.76 17.77h184.13c9.8 0 17.77-7.95 17.77-17.76v-53.9c0-9.8-7.96-17.76-17.77-17.76zM380.1 399.2v53.9c0 9.82 7.97 17.77 17.78 17.77h75.63v-89.43H397.9c-9.8 0-17.76 7.95-17.76 17.76zM76.94 381.44H1.3v89.44h75.64c9.8 0 17.76-7.96 17.76-17.77v-53.9c0-9.8-7.95-17.76-17.76-17.76zM17.77 344.6H201.9c9.8 0 17.76-7.95 17.76-17.76v-53.9c0-9.82-7.95-17.77-17.77-17.77H17.75c-9.8 0-17.76 7.95-17.76 17.76v53.9c0 9.82 7.95 17.78 17.77 17.78zM252.54 272.93v53.9c0 9.82 7.95 17.78 17.76 17.78h184.13c9.8 0 17.77-7.95 17.77-17.76v-53.9c0-9.82-7.96-17.77-17.77-17.77H270.3c-9.8 0-17.76 7.95-17.76 17.76z"/>
</svg>
