<svg xmlns="http://www.w3.org/2000/svg" width="566.645" height="566.645" viewBox="0 0 566.645 566.645"><path d="M349.656 119.91H28.196C12.653 119.91 0 132.564 0 148.11v194.818c0 15.545 12.654 28.196 28.197 28.196H142.12v40.53H92.47c-7.636 0-13.823 6.188-13.823 13.823v19.953c0 7.638 6.187 13.823 13.822 13.823h192.91c7.637 0 13.82-6.186 13.82-13.822v-19.953c0-7.636-6.185-13.823-13.82-13.823h-49.64v-40.53h113.915c15.542 0 28.195-12.653 28.195-28.196V148.108c.002-15.545-12.65-28.197-28.196-28.197zm-.552 222.465l-320.355.55-.554-194.267 320.91-.553v194.27zM553.59 105.592H414.912c-7.207 0-13.056 5.85-13.056 13.054v329.35c0 7.205 5.85 13.056 13.056 13.056H553.59c7.206 0 13.055-5.85 13.055-13.056v-329.35c0-7.205-5.85-13.054-13.056-13.054zm-114.693 22.03h90.713c5.298 0 9.584 4.287 9.584 9.583 0 5.298-4.284 9.584-9.584 9.584h-90.714c-5.296 0-9.58-4.287-9.58-9.585 0-5.297 4.288-9.582 9.58-9.582zm45.344 309.35c-8.094 0-14.645-6.55-14.645-14.646 0-8.104 6.552-14.655 14.646-14.655 8.106 0 14.658 6.552 14.658 14.656 0 8.093-6.55 14.646-14.657 14.646zm0-61.084c-11.164 0-20.203-9.052-20.203-20.216 0-11.174 9.04-20.225 20.204-20.225 11.176 0 20.226 9.05 20.226 20.225 0 11.164-9.05 20.216-20.225 20.216zm59.102-146.266c0 5.343-4.333 9.676-9.676 9.676h-98.82c-5.342 0-9.675-4.33-9.675-9.676v-29.817c0-5.345 4.334-9.678 9.677-9.678h98.82c5.342 0 9.675 4.333 9.675 9.678v29.817z"/></svg>